<svg version="1.1" id="Layer_1" xmlns="http://www.w3.org/2000/svg" xmlns:xlink="http://www.w3.org/1999/xlink" x="0px" y="0px"
	 width="100%" viewBox="0 0 1024 1024" enable-background="new 0 0 1024 1024" xml:space="preserve">
<path fill="oklch(0.879 0.169 91.605)" opacity="1.000000" stroke="none"
	  d="
M390.455475,515.003906
	C386.337494,514.176025 386.553253,511.293243 386.718597,508.635651
	C388.031708,487.531281 393.497253,467.624573 404.555756,449.494965
	C424.256104,417.197693 452.669098,396.212463 489.784882,389.613403
	C539.981628,380.688599 582.490845,395.183441 614.654358,436.176453
	C630.568298,456.459015 638.677734,479.662811 641.168396,505.064728
	C641.330505,506.717865 641.238892,508.394623 641.302979,510.058929
	C641.412048,512.892700 640.308594,514.542236 637.233887,514.339661
	C636.902283,514.317810 636.567444,514.351624 636.234375,514.344788
	C603.754822,513.675415 571.287415,514.984009 538.795105,514.770935
	C493.341187,514.472900 447.855804,513.503052 402.394867,515.123596
	C398.570465,515.259888 394.735687,515.105652 390.455475,515.003906
z"/>
	<path fill="oklch(0.879 0.169 91.605)" opacity="1.000000" stroke="none"
		  d="
M622.415161,575.474365
	C614.863342,574.813599 607.733765,576.239136 600.605774,576.127380
	C536.967957,575.129456 473.334717,576.486267 409.699402,576.457031
	C404.336853,576.454590 401.337891,574.843628 399.637238,569.850586
	C397.235657,562.799805 393.135376,556.374451 392.442932,548.670837
	C392.172577,545.663269 393.095367,544.264709 395.778046,543.636719
	C401.301147,542.343750 406.936890,541.807373 412.574768,541.759949
	C431.237061,541.602722 449.903076,541.791870 468.563568,541.540710
	C497.548584,541.150696 526.525513,540.323120 555.520996,540.948792
	C576.325378,541.397705 597.138672,541.416687 617.946106,541.746704
	C622.090332,541.812439 626.233337,542.350464 630.362854,542.799988
	C633.107971,543.098816 634.664978,544.686218 634.210938,547.551086
	C632.599365,557.720825 628.795288,567.012390 622.415161,575.474365
z"/>
	<path fill="oklch(0.879 0.169 91.605)" opacity="1.000000" stroke="none"
		  d="
M438.773834,615.257141
	C437.722260,614.400024 436.855499,613.846313 436.208771,613.101440
	C434.655701,611.312805 431.312531,610.465027 432.061218,607.442810
	C432.777588,604.551270 435.857544,603.875916 438.333862,603.050964
	C440.516846,602.323730 442.867554,601.794067 445.157593,601.739502
	C489.104706,600.692200 533.057434,600.403564 577.013611,601.051636
	C581.170410,601.112854 585.324829,601.450989 589.476379,601.721375
	C592.630676,601.926758 595.641968,602.989258 596.873596,605.988525
	C598.255005,609.352600 594.840210,610.451416 592.931885,612.076172
	C570.498047,631.176697 543.886475,639.112122 515.070984,639.787659
	C487.128937,640.442749 461.548492,632.480286 438.773834,615.257141
z"/>
	<path fill="oklch(0.924 0.12 95.746)" opacity="1.000000" stroke="none"
		  d="
M664.969238,736.415222
	C658.851013,734.755310 655.575378,730.122986 652.299866,725.828003
	C637.773621,706.781006 623.453308,687.576599 609.126587,668.378418
	C606.221008,664.484802 604.093323,660.188171 603.443420,655.247009
	C602.207703,645.850769 609.535828,639.001892 618.775696,640.982239
	C624.720886,642.256470 628.577271,646.279663 632.071655,650.869202
	C645.978027,669.133850 659.909302,687.379639 673.863586,705.607666
	C675.884705,708.247742 678.177246,710.681274 680.177429,713.335938
	C684.599182,719.204590 684.973083,724.828735 681.475464,730.453613
	C678.211304,735.703003 672.430298,737.864868 664.969238,736.415222
z"/>
	<path fill="oklch(0.924 0.12 95.746)" opacity="1.000000" stroke="none"
		  d="
M589.189697,693.935059
	C596.502747,714.007690 603.799683,733.672058 610.820496,753.434448
	C614.347778,763.362915 609.796143,771.921387 600.407349,773.924683
	C593.875305,775.318420 586.530884,771.163818 583.220947,763.889832
	C578.598022,753.730164 574.884827,743.216797 571.303040,732.646484
	C566.179199,717.525024 559.892273,702.791992 556.273010,687.170959
	C555.470642,683.707825 555.103943,680.186707 556.219116,676.818970
	C557.862915,671.854431 560.755066,667.738953 566.351868,666.848755
	C571.929871,665.961609 576.471130,668.085754 579.867981,672.603821
	C584.578308,678.868835 586.133118,686.519043 589.189697,693.935059
z"/>
	<path fill="oklch(0.924 0.12 95.746)" opacity="1.000000" stroke="none"
		  d="
M414.704407,640.713135
	C424.330902,643.141174 427.809479,652.379883 422.636139,661.686523
	C420.308594,665.873596 417.475800,669.911316 414.242371,673.439636
	C402.618073,686.124268 394.391113,701.348083 383.266083,714.378174
	C378.083954,720.447693 374.323761,727.625427 368.412476,733.119507
	C363.652649,737.543518 358.213776,738.651428 352.284180,736.220520
	C344.334808,732.961426 341.896729,723.037415 346.636261,714.410767
	C350.039825,708.215759 355.077240,703.296997 359.383789,697.807068
	C372.218384,681.445496 384.229187,664.438843 397.958069,648.775635
	C402.336548,643.780334 407.298462,640.285095 414.704407,640.713135
z"/>
	<path fill="oklch(0.924 0.12 95.746)" opacity="1.000000" stroke="none"
		  d="
M379.789246,625.700256
	C359.418579,643.445740 337.323914,658.416626 316.715546,675.283691
	C313.389465,678.005981 309.535400,680.120117 304.973236,680.326355
	C299.432861,680.576904 294.641663,679.114807 291.806458,674.011963
	C288.883575,668.751343 289.451935,663.407471 292.491974,658.365845
	C294.223389,655.494568 296.676208,653.204895 299.344055,651.165466
	C318.916046,636.204163 338.482788,621.235962 358.054077,606.273743
	C361.703796,603.483459 365.714935,601.602356 370.397247,601.436951
	C381.713715,601.037109 387.352600,608.775940 383.571594,619.466919
	C382.779877,621.705444 381.602081,623.676392 379.789246,625.700256
z"/>
	<path fill="oklch(0.924 0.12 95.746)" opacity="1.000000" stroke="none"
		  d="
M371.329468,345.643616
	C365.215363,338.360443 359.322784,331.358185 353.438782,324.348724
	C350.102966,320.374878 347.169800,316.163879 345.591553,311.138550
	C343.736877,305.232758 344.514557,299.863068 349.255371,295.634979
	C354.079529,291.332520 359.694214,291.848938 365.202606,294.013214
	C369.852570,295.840210 373.027466,299.627289 375.955872,303.470642
	C390.980591,323.189819 405.932922,342.964233 420.882324,362.740662
	C423.760345,366.547943 425.855316,370.773956 425.012604,375.670380
	C424.159424,380.627594 421.952881,384.933899 416.712494,386.610931
	C411.104401,388.405670 406.091064,386.834076 402.027649,382.861023
	C393.916412,374.930115 387.147766,365.831116 380.150269,356.941162
	C377.268951,353.280609 374.418884,349.595459 371.329468,345.643616
z"/>
	<path fill="oklch(0.924 0.12 95.746)" opacity="1.000000" stroke="none"
		  d="
M528.243042,291.999847
	C528.243896,306.665771 528.288452,320.831909 528.222900,334.997559
	C528.191833,341.722565 525.786133,347.375031 520.006592,351.207977
	C514.796997,354.662964 509.478149,354.078217 505.121185,349.563141
	C501.345917,345.650818 499.735199,340.833160 499.680756,335.467041
	C499.423798,310.144135 499.168457,284.821198 498.954895,259.497925
	C498.919739,255.331284 499.038422,251.134995 500.857727,247.261627
	C504.032684,240.502090 510.706909,237.216095 517.774170,238.834976
	C523.785156,240.211884 528.242065,246.029099 528.283020,253.001984
	C528.358398,265.834076 528.264771,278.667206 528.243042,291.999847
z"/>
	<path fill="oklch(0.924 0.12 95.746)" opacity="1.000000" stroke="none"
		  d="
M607.278442,285.127350
	C598.153259,306.390106 590.148804,327.681427 582.049500,348.938934
	C580.039062,354.215485 577.436157,359.660645 571.261780,361.185150
	C563.204956,363.174408 556.381897,357.433533 555.683228,348.613068
	C555.349854,344.404968 556.059204,340.343933 557.225647,336.316589
	C564.267395,312.004303 574.114990,288.669220 582.140015,264.699554
	C584.422791,257.881195 589.785034,254.761887 596.407104,253.797775
	C606.609131,252.312439 614.291504,261.076843 611.906555,271.560699
	C610.880798,276.069427 608.925354,280.366638 607.278442,285.127350
z"/>
	<path fill="oklch(0.924 0.12 95.746)" opacity="1.000000" stroke="none"
		  d="
M454.851990,735.670166
	C452.126495,743.411743 449.578827,750.800049 446.961426,758.163635
	C446.182800,760.354187 445.363647,762.555603 444.296722,764.614014
	C439.951202,772.997986 432.215240,776.216980 424.432037,772.997375
	C418.053131,770.358643 414.877075,761.954895 417.498383,753.679993
	C423.827789,733.699463 430.957367,713.995239 438.446503,694.422363
	C441.002106,687.743225 443.426971,681.004395 446.927124,674.724548
	C450.567688,668.192932 456.301788,665.313477 462.593903,666.947144
	C468.761108,668.548401 472.617920,674.099487 472.562927,681.363342
	C472.527039,686.106262 470.919403,690.480225 469.352264,694.871765
	C464.545441,708.341797 459.782837,721.827637 454.851990,735.670166
z"/>
	<path fill="oklch(0.924 0.12 95.746)" opacity="1.000000" stroke="none"
		  d="
M504.167572,680.235779
	C513.437378,671.830811 524.181091,675.018555 527.314087,686.801514
	C527.780212,688.554626 528.143311,690.398315 528.148254,692.201294
	C528.221313,719.001831 528.317688,745.803101 528.199036,772.603210
	C528.155029,782.548523 521.644958,788.715759 512.260193,788.348938
	C506.354614,788.118164 501.520233,783.873169 499.809814,777.236816
	C498.977570,774.007812 498.707855,770.697754 498.754425,767.343140
	C499.098877,742.550171 499.372070,717.756165 499.724884,692.963318
	C499.789795,688.404114 500.596588,684.011292 504.167572,680.235779
z"/>
	<path fill="oklch(0.924 0.12 95.746)" opacity="1.000000" stroke="none"
		  d="
M737.308105,670.066650
	C733.690674,679.581238 725.367249,682.396606 715.570312,677.568665
	C708.655151,674.160767 702.993958,668.907349 696.939453,664.253540
	C682.040466,652.801025 667.203247,641.268005 652.316833,629.799072
	C647.213501,625.867310 643.828064,620.984375 643.242188,614.402954
	C642.652832,607.782104 647.146973,602.328064 653.762390,601.715454
	C659.485413,601.185425 664.649475,602.692444 669.196655,606.168701
	C681.087036,615.258911 692.903870,624.445740 704.828735,633.490356
	C713.174377,639.820190 721.689453,645.926392 730.053101,652.232910
	C735.832947,656.591125 738.386292,662.413513 737.308105,670.066650
z"/>
	<path fill="oklch(0.924 0.12 95.746)" opacity="1.000000" stroke="none"
		  d="
M302.632568,380.411072
	C298.444244,377.312225 294.761261,374.265106 292.551697,369.744659
	C289.999847,364.523987 289.688568,359.416870 293.411896,354.728607
	C297.087433,350.100494 302.186798,348.958832 307.810638,350.015747
	C312.319916,350.863190 316.278870,353.042297 319.854034,355.810394
	C338.935669,370.584625 357.981445,385.405334 377.005524,400.253632
	C381.755890,403.961334 385.593506,408.367798 384.892181,414.924957
	C383.808472,425.057983 376.232849,429.695282 366.170776,426.680389
	C362.068298,425.451141 358.849670,422.813385 355.529968,420.308105
	C337.996124,407.075958 320.457977,393.849518 302.632568,380.411072
z"/>
	<path fill="oklch(0.924 0.12 95.746)" opacity="1.000000" stroke="none"
		  d="
M453.072144,288.050720
	C459.224365,305.178131 465.281830,321.924927 471.254517,338.701965
	C473.198334,344.162079 473.986572,349.582977 470.733093,355.011841
	C466.411469,362.223083 458.012268,363.792267 451.526642,358.347778
	C448.911163,356.152191 447.157410,353.332855 445.933014,350.184753
	C436.698944,326.441833 427.495819,302.686768 418.241028,278.951904
	C416.880432,275.462494 416.440948,271.890198 416.570618,268.185699
	C416.825562,260.900696 420.367035,256.287872 427.261963,254.367203
	C433.267090,252.694397 439.439514,255.281067 443.086426,261.027496
	C445.434509,264.727417 446.645569,268.904785 448.030670,273.004883
	C449.681854,277.892761 451.307678,282.789185 453.072144,288.050720
z"/>
	<path fill="oklch(0.924 0.12 95.746)" opacity="1.000000" stroke="none"
		  d="
M614.132263,353.162231
	C627.946533,335.436401 641.535461,317.985870 655.135864,300.544312
	C658.275574,296.517853 662.049683,293.310211 667.129883,292.081268
	C672.882202,290.689758 677.873474,292.460541 681.352600,297.025269
	C684.812561,301.564941 685.103821,306.603149 682.376099,311.993317
	C678.559570,319.534973 672.233215,325.022736 667.210510,331.563751
	C661.064087,339.568207 654.332214,347.121582 648.132935,355.087494
	C641.410339,363.725922 635.071899,372.664276 627.865906,380.922760
	C627.104553,381.795410 626.212036,382.562653 625.329041,383.318817
	C619.931885,387.940582 614.053711,388.643219 608.859375,385.311768
	C604.336365,382.410828 601.972229,374.583923 603.772339,368.731354
	C605.650391,362.625305 610.377869,358.434753 614.132263,353.162231
z"/>
	<path fill="oklch(0.924 0.12 95.746)" opacity="1.000000" stroke="none"
		  d="
M681.771179,412.802795
	C676.729919,416.394928 672.011169,419.824097 667.194641,423.109955
	C665.419495,424.320923 663.497986,425.413300 661.497803,426.180603
	C654.942383,428.695251 649.543396,427.486877 646.109253,422.948853
	C642.483276,418.157257 642.388916,411.325531 645.826965,406.109161
	C647.887024,402.983490 650.881592,400.841064 653.647522,398.442200
	C671.793152,382.705322 691.545166,369.026947 710.407959,354.208466
	C716.023315,349.797089 722.489624,347.038971 729.985291,349.654449
	C735.633362,351.625305 738.735168,356.679352 737.602478,362.558380
	C736.523499,368.158386 733.700867,372.814667 729.175171,376.310699
	C713.488831,388.427979 697.764648,400.496185 681.771179,412.802795
z"/>
	<path fill="oklch(0.924 0.12 95.746)" opacity="1.000000" stroke="none"
		  d="
M726.815186,597.329224
	C710.951965,591.619629 695.493530,585.946716 679.980896,580.425842
	C674.231873,578.379761 670.189026,574.870789 668.693420,568.826599
	C666.827942,561.287903 670.811707,555.160645 678.430054,553.714783
	C683.140930,552.820679 687.755066,553.444092 692.215820,554.911438
	C714.499817,562.241577 736.761719,569.639160 759.006042,577.088745
	C761.358276,577.876465 763.609375,579.040588 765.796509,580.233337
	C773.613281,584.496338 776.866211,591.571777 774.227417,598.338440
	C771.420227,605.537109 763.576843,609.223450 755.132690,606.698914
	C745.737000,603.889832 736.502869,600.540344 726.815186,597.329224
z"/>
	<path fill="oklch(0.924 0.12 95.746)" opacity="1.000000" stroke="none"
		  d="
M298.015564,567.921204
	C311.882141,563.065369 325.263489,558.008057 339.029327,554.101013
	C342.702942,553.058350 346.357605,552.042297 350.275879,553.389832
	C355.248657,555.100098 359.574432,557.412659 360.264954,563.235840
	C361.037445,569.749878 359.097443,575.287598 352.867279,578.236145
	C347.772308,580.647400 342.427673,582.563049 337.111572,584.469299
	C317.076202,591.653503 297.007996,598.746277 276.950073,605.867554
	C274.110779,606.875610 271.221375,607.432312 268.162903,607.383179
	C260.976227,607.267761 256.232513,604.189270 254.374786,598.184998
	C252.547012,592.277588 255.111023,585.325500 260.783081,581.717285
	C266.875916,577.841492 273.846680,575.979187 280.605988,573.674438
	C286.265381,571.744568 291.961517,569.922424 298.015564,567.921204
z"/>
	<path fill="oklch(0.924 0.12 95.746)" opacity="1.000000" stroke="none"
		  d="
M714.999878,527.318420
	C706.848083,527.316833 699.195862,527.362549 691.544556,527.301697
	C682.015747,527.225952 676.502930,522.827820 675.765869,514.834961
	C675.126648,507.902679 680.264587,502.054535 688.808411,500.424652
	C698.007751,498.669769 707.381348,499.585663 716.660583,499.225555
	C734.601868,498.529327 752.582214,498.850342 770.546021,498.709137
	C773.241394,498.687927 775.863953,499.058258 778.417480,499.827118
	C786.258850,502.188110 790.328491,507.891876 789.259216,514.900879
	C788.254395,521.487488 781.540466,527.248779 774.385010,527.295166
	C757.751282,527.403015 741.116577,527.351746 724.482239,527.358948
	C721.488098,527.360229 718.494019,527.332642 714.999878,527.318420
z"/>
	<path fill="oklch(0.924 0.12 95.746)" opacity="1.000000" stroke="none"
		  d="
M674.169373,472.148712
	C665.301453,463.538422 666.863342,453.095398 677.716431,448.239258
	C702.476440,437.160736 728.282898,428.869812 753.905273,420.102478
	C757.612122,418.834076 761.381042,418.699371 765.145569,420.042419
	C770.349731,421.899048 774.374207,425.033783 775.003601,430.816010
	C775.601257,436.306763 773.241028,440.880371 768.999878,444.347565
	C766.400269,446.472839 763.261902,447.680267 760.098938,448.747253
	C735.854370,456.926056 711.611267,465.109558 687.357239,473.260345
	C682.973206,474.733673 678.595154,475.274139 674.169373,472.148712
z"/>
	<path fill="oklch(0.924 0.12 95.746)" opacity="1.000000" stroke="none"
		  d="
M255.197342,427.589294
	C260.405487,420.228790 267.458984,417.338409 275.428772,420.178314
	C299.880188,428.891235 324.216034,437.930084 348.549194,446.970367
	C350.833282,447.818939 352.937256,449.380737 354.855408,450.942383
	C360.249664,455.334076 361.513458,460.909393 358.739258,466.994354
	C356.280609,472.387238 350.575470,475.336914 344.159851,473.892242
	C333.764679,471.551453 323.703796,468.012207 313.633606,464.565582
	C298.364105,459.339386 283.178314,453.877167 267.707825,449.240082
	C257.025269,446.038116 252.394791,437.981842 255.197342,427.589294
z"/>
	<path fill="oklch(0.924 0.12 95.746)" opacity="1.000000" stroke="none"
		  d="
M250.093994,500.720032
	C253.717255,499.149872 257.143433,498.693207 260.676880,498.699890
	C285.631012,498.747040 310.585358,498.728821 335.539307,498.818939
	C345.604370,498.855286 351.679504,503.735657 352.407166,512.071594
	C353.001221,518.877014 348.611481,524.903687 341.896606,526.283142
	C339.627960,526.749146 337.283417,527.057922 334.971741,527.069458
	C308.685547,527.200317 282.398956,527.324402 256.112610,527.303772
	C246.627747,527.296326 240.622269,520.351440 241.712769,511.022552
	C242.296112,506.032196 245.790726,503.251312 250.093994,500.720032
z"/>
</svg>
